Coordinates
version=1
nRows=4
nColumns=63
inDegrees=yes

Units are S.I. units (second, meters, Newtons, ...)
If the header above contains a line with 'inDegrees', this indicates whether rotational values are in degrees (yes) or radians (no).

endheader
time	pelvis_tilt	pelvis_list	pelvis_rotation	pelvis_tx	pelvis_ty	pelvis_tz	hip_flexion_r	hip_adduction_r	hip_rotation_r	knee_angle_r	knee_angle_r_beta	ankle_angle_r	subtalar_angle_r	mtp_angle_r	hip_flexion_l	hip_adduction_l	hip_rotation_l	knee_angle_l	knee_angle_l_beta	ankle_angle_l	subtalar_angle_l	mtp_angle_l	L5_S1_Flex_Ext	L5_S1_Lat_Bending	L5_S1_axial_rotation	L4_L5_Flex_Ext	L4_L5_Lat_Bending	L4_L5_axial_rotation	L3_L4_Flex_Ext	L3_L4_Lat_Bending	L3_L4_axial_rotation	L2_L3_Flex_Ext	L2_L3_Lat_Bending	L2_L3_axial_rotation	L1_L2_Flex_Ext	L1_L2_Lat_Bending	L1_L2_axial_rotation	L1_T12_Flex_Ext	L1_T12_Lat_Bending	L1_T12_axial_rotation	Abs_r3	Abs_r2	Abs_r1	Abs_t1	Abs_t2	neck_flexion	neck_bending	neck_rotation	arm_flex_r	arm_add_r	arm_rot_r	elbow_flex_r	pro_sup_r	wrist_flex_r	wrist_dev_r	arm_flex_l	arm_add_l	arm_rot_l	elbow_flex_l	pro_sup_l	wrist_flex_l	wrist_dev_l
      4.98305085	     -3.29446355	     -1.68437563	     81.15004150	      0.27075152	      0.76720445	      0.69752865	      3.71121910	     -1.47744795	     -7.96151267	     14.17338047	      0.24737216	     37.14376498	     18.35537482	      0.00000000	     -1.48357854	      1.19251429	     -4.77365568	      7.82828862	      0.13662941	     23.00906305	     -8.38900482	      0.00000000	     -0.44791406	      0.11628184	      1.46371154	     -0.83182121	      0.15465485	      1.55519351	     -0.73587801	      0.28272767	      1.55519351	     -0.51192098	      0.28272767	      1.28074759	     -0.41593300	      0.23712193	      1.18926562	     -0.25593810	      0.18012057	      1.09778365	     -3.19940536	      1.31540345	      8.14072445	      0.00000000	      0.00000000	      2.73213251	     -2.91981794	     -4.09740231	     -6.83795647	    -15.36278327	     15.47865151	     38.59168143	     78.58408914	     -0.93281289	      0.93300641	     -2.11892481	    -16.68937211	     30.29063085	     30.42819011	     87.38788645	     -3.44894187	     -8.50274732
      5.00000000	     -3.29902953	     -1.73432970	     81.18320140	      0.27053642	      0.76713297	      0.69802622	      3.84235872	     -1.49170891	     -7.98262651	     14.25882597	      0.24886346	     37.09129801	     18.30436215	      0.00000000	     -1.38830731	      1.24819868	     -3.90275753	      7.78459638	      0.13586684	     22.64139544	     -9.60479232	      0.00000000	     -0.44870902	      0.11787845	      1.46159360	     -0.83329753	      0.15677834	      1.55294320	     -0.73718405	      0.28660967	      1.55294320	     -0.51282954	      0.28660967	      1.27889440	     -0.41667120	      0.24037774	      1.18754480	     -0.25639234	      0.18259372	      1.09619520	     -3.20508368	      1.33346461	      8.12894512	      0.00000000	      0.00000000	      2.77369117	     -2.85855028	     -3.77359928	     -6.77966912	    -15.42990072	     15.56130866	     38.60925995	     78.73594115	     -1.13355392	      0.95300628	     -2.00874556	    -16.58298456	     30.27119030	     30.32907426	     87.38780099	     -3.68636693	     -8.86828724
      5.01694915	     -3.27692458	     -1.84018268	     81.38383041	      0.27010474	      0.76696353	      0.69831196	      3.96014565	     -1.48307082	     -8.26258778	     14.28240335	      0.24927496	     36.95004657	     18.29255316	      0.00000000	     -1.16210765	      1.20338169	     -3.68537838	      7.91235364	      0.13809662	     22.72591866	     -9.59244335	      0.00000000	     -0.44342716	      0.12118043	      1.47026341	     -0.82348858	      0.16116997	      1.56215487	     -0.72850648	      0.29463810	      1.56215487	     -0.50679290	      0.29463810	      1.28648048	     -0.41176646	      0.24711114	      1.19458902	     -0.25337428	      0.18770849	      1.10269755	     -3.16735587	      1.37081728	      8.17716398	      0.00000000	      0.00000000	      2.77853830	     -2.96030587	     -3.89124799	     -6.95859874	    -15.39475992	     14.87261162	     38.83642773	     79.56590640	     -1.11881059	      0.97468735	     -1.75498450	    -16.49912563	     30.54082189	     30.20926754	     87.40324012	     -3.73705284	     -9.08604808
      5.03389831	     -3.30444045	     -1.99678204	     81.55545913	      0.26972379	      0.76665782	      0.69843970	      4.12503840	     -1.51754721	     -8.44199210	     14.31061068	      0.24976727	     36.79513040	     18.25685286	      0.00000000	     -0.88472531	      1.22621898	     -3.17215836	      8.03930152	      0.14031228	     22.65498129	    -10.14094541	      0.00000000	     -0.43269235	      0.11586013	      1.47565213	     -0.80355296	      0.15409397	      1.56788039	     -0.71087026	      0.28170231	      1.56788039	     -0.49452408	      0.28170231	      1.29119561	     -0.40179811	      0.23626197	      1.19896736	     -0.24724041	      0.17946734	      1.10673910	     -3.09067817	      1.31063292	      8.20713445	      0.00000000	      0.00000000	      2.75003850	     -3.07691971	     -4.07636695	     -7.08908937	    -15.45102904	     14.50451245	     39.16251313	     80.36700186	     -1.23813273	      0.71791461	     -1.68424896	    -16.35469466	     30.20718493	     30.17178389	     87.44096208	     -3.61016514	     -9.11667229
